<?xml version="1.0" encoding="UTF-8" standalone="no"?>
<!-- Created with Inkscape (http://www.inkscape.org/) -->

<svg
   version="1.1"
   id="svg2"
   width="159.21405"
   height="161.40584"
   viewBox="0 0 159.21405 161.40584"
   sodipodi:docname="taku_logo.svg"
   inkscape:export-filename="taku_logo.png"
   inkscape:export-xdpi="76.298592"
   inkscape:export-ydpi="76.298592"
   inkscape:version="1.2.2 (732a01da63, 2022-12-09)"
   xmlns:inkscape="http://www.inkscape.org/namespaces/inkscape"
   xmlns:sodipodi="http://sodipodi.sourceforge.net/DTD/sodipodi-0.dtd"
   xmlns="http://www.w3.org/2000/svg"
   xmlns:svg="http://www.w3.org/2000/svg">
  <defs
     id="defs6">
    <filter
       inkscape:label="Opacity"
       style="color-interpolation-filters:sRGB"
       id="filter2806"
       x="-0.02925113"
       y="-0.028831618"
       width="1.0584912"
       height="1.057654">
      <feColorMatrix
         values="1 0 0 0 0 0 1 0 0 0 0 0 1 0 0 0 0 0 5 -1 "
         result="colormatrix"
         id="feColorMatrix2802" />
      <feComposite
         in2="colormatrix"
         operator="arithmetic"
         k2="0.411215"
         result="fbSourceGraphic"
         id="feComposite2804"
         k1="0"
         k3="0"
         k4="0" />
      <feColorMatrix
         result="fbSourceGraphicAlpha"
         in="fbSourceGraphic"
         values="0 0 0 -1 0 0 0 0 -1 0 0 0 0 -1 0 0 0 0 1 0"
         id="feColorMatrix2826" />
      <feColorMatrix
         id="feColorMatrix2828"
         values="1 0 0 0 0 0 1 0 0 0 0 0 1 0 0 0 0 0 5 -1 "
         result="colormatrix"
         in="fbSourceGraphic" />
      <feComposite
         in2="colormatrix"
         id="feComposite2830"
         operator="arithmetic"
         k2="0.489097"
         result="fbSourceGraphic"
         k1="0"
         k3="0"
         k4="0" />
      <feColorMatrix
         result="fbSourceGraphicAlpha"
         in="fbSourceGraphic"
         values="0 0 0 -1 0 0 0 0 -1 0 0 0 0 -1 0 0 0 0 1 0"
         id="feColorMatrix4065" />
      <feColorMatrix
         id="feColorMatrix4067"
         values="1 0 0 0 0 0 1 0 0 0 0 0 1 0 0 0 0 0 5 -1 "
         result="colormatrix"
         in="fbSourceGraphic" />
      <feComposite
         in2="colormatrix"
         id="feComposite4069"
         operator="arithmetic"
         k2="1"
         result="fbSourceGraphic"
         k1="0"
         k3="0"
         k4="0" />
      <feColorMatrix
         result="fbSourceGraphicAlpha"
         in="fbSourceGraphic"
         values="0 0 0 -1 0 0 0 0 -1 0 0 0 0 -1 0 0 0 0 1 0"
         id="feColorMatrix4071" />
      <feColorMatrix
         id="feColorMatrix4073"
         values="1 0 0 0 0 0 1 0 0 0 0 0 1 0 0 0 0 0 5 -1 "
         result="colormatrix"
         in="fbSourceGraphic" />
      <feComposite
         in2="colormatrix"
         id="feComposite4075"
         operator="arithmetic"
         k2="1"
         result="composite"
         k1="0"
         k3="0"
         k4="0" />
    </filter>
    <filter
       inkscape:label="Opacity"
       style="color-interpolation-filters:sRGB"
       id="filter18894"
       x="-0.0031218105"
       y="-0.015558482"
       width="1.0062435"
       height="1.0311164">
      <feColorMatrix
         values="1 0 0 0 0 0 1 0 0 0 0 0 1 0 0 0 0 0 5 -1 "
         result="colormatrix"
         id="feColorMatrix18890" />
      <feComposite
         in2="colormatrix"
         operator="arithmetic"
         k2="1"
         result="fbSourceGraphic"
         id="feComposite18892"
         k1="0"
         k3="0"
         k4="0" />
      <feColorMatrix
         result="fbSourceGraphicAlpha"
         in="fbSourceGraphic"
         values="0 0 0 -1 0 0 0 0 -1 0 0 0 0 -1 0 0 0 0 1 0"
         id="feColorMatrix18896" />
      <feColorMatrix
         id="feColorMatrix18898"
         values="1 0 0 0 0 0 1 0 0 0 0 0 1 0 0 0 0 0 5 -1 "
         result="colormatrix"
         in="fbSourceGraphic" />
      <feComposite
         in2="colormatrix"
         id="feComposite18900"
         operator="arithmetic"
         k2="1"
         result="composite"
         k1="0"
         k3="0"
         k4="0" />
    </filter>
  </defs>
  <sodipodi:namedview
     id="namedview4"
     pagecolor="#ffffff"
     bordercolor="#000000"
     borderopacity="0.25"
     inkscape:showpageshadow="2"
     inkscape:pageopacity="0.0"
     inkscape:pagecheckerboard="true"
     inkscape:deskcolor="#d1d1d1"
     showgrid="false"
     inkscape:zoom="2.1036162"
     inkscape:cx="322.06445"
     inkscape:cy="116.94148"
     inkscape:window-width="2560"
     inkscape:window-height="1369"
     inkscape:window-x="-8"
     inkscape:window-y="-8"
     inkscape:window-maximized="1"
     inkscape:current-layer="layer1" />
  <g
     inkscape:groupmode="layer"
     id="layer1"
     inkscape:label="taku_logo"
     style="display:inline;opacity:1;filter:url(#filter2806)"
     transform="translate(-480.57837,-9.4926527)">
    <g
       id="g16836"
       style="display:inline"
       transform="translate(219.4079,-7.5214907)"
       inkscape:export-filename="favicon.svg"
       inkscape:export-xdpi="76.131065"
       inkscape:export-ydpi="76.131065">
      <path
         id="path3527"
         style="display:inline;opacity:1;mix-blend-mode:normal;fill:none;fill-opacity:1;stroke:#f8efea;stroke-width:7;stroke-linecap:round;stroke-linejoin:bevel;stroke-dasharray:none;stroke-opacity:1;filter:url(#filter2806);image-rendering:auto"
         inkscape:label="tak_white_edge"
         d="m 413.13477,21.414062 -86.38672,3.697266 -3.36133,12.4375 h -4.03516 l 2.13672,-12.833984 -23.3125,0.396484 -3.69726,13.445313 -10.75782,0.673828 -8.0664,34.285156 11.9414,0.257813 -3.875,18.566406 -8.54101,3.417968 -9.60938,44.314458 10.75586,-4.03516 -9.41211,37.98437 11.09375,-14.45507 -2.01758,10.08593 9.74805,-10.42187 -0.33594,6.38672 4.36914,-6.38672 2.01758,5.04297 6.72266,-28.90821 3.69726,22.52149 22.52149,-32.26953 -11.0918,40.33593 55.125,-2.6875 17.81641,-80.001948 17.95508,-16.076172 -21.13672,7.058594 18.26953,-10.933594 -52.33789,1.5625 3.30078,-14.552734 42.68945,-1.681641 2.90625,-10.498047 17.75977,-12.857422 -21.00195,5.914063 z m -87.98047,30.044922 2.61523,0.238282 -7.13086,29.234375 -12.0039,3.566406 2.73437,-12.597656 h 8.91211 z m 28.16601,41.951172 h 5.94141 l -7.36719,34.822264 -6.06055,0.11719 z" />
      <path
         id="path10860"
         style="display:inline;opacity:1;mix-blend-mode:normal;fill:#e9262d;fill-opacity:1;stroke:#000000;stroke-width:2.2;stroke-linecap:butt;stroke-linejoin:round;stroke-dasharray:none;stroke-opacity:0.988848;paint-order:normal;filter:url(#filter2806);image-rendering:auto"
         inkscape:label="tak_red"
         d="m 413.13477,21.414062 -86.38672,3.697266 -3.36133,12.4375 h -4.03516 l 2.13672,-12.833984 -23.3125,0.396484 -3.69726,13.445313 -10.75782,0.673828 -8.0664,34.285156 11.9414,0.257813 -3.875,18.566406 -8.54101,3.417968 -9.60938,44.314458 10.75586,-4.03516 -9.41211,37.98437 11.09375,-14.45507 -2.01758,10.08593 9.74805,-10.42187 -0.33594,6.38672 4.36914,-6.38672 2.01758,5.04297 6.72266,-28.90821 3.69726,22.52149 22.52149,-32.26953 -11.0918,40.33593 55.125,-2.6875 17.81641,-80.001948 17.95508,-16.076172 -21.13672,7.058594 18.26953,-10.933594 -52.33789,1.5625 3.30078,-14.552734 42.68945,-1.681641 2.90625,-10.498047 17.75977,-12.857422 -21.00195,5.914063 z m -87.98047,30.044922 2.61523,0.238282 -7.13086,29.234375 -12.0039,3.566406 2.73437,-12.597656 h 8.91211 z m 28.16601,41.951172 h 5.94141 l -7.36719,34.822264 -6.06055,0.11719 z"
         sodipodi:insensitive="true" />
      <path
         style="display:inline;opacity:0.827815;fill:none;fill-opacity:1;stroke:#000000;stroke-width:1.9;stroke-linecap:round;stroke-linejoin:round;stroke-dasharray:none;stroke-opacity:1"
         d="m 320.16297,81.52628 -3.80297,12.121983 -21.39174,16.638017 4.04066,25.4324"
         id="path14130" />
    </g>
  </g>
  <g
     inkscape:groupmode="layer"
     id="layer3"
     inkscape:label="shippuu"
     style="display:none;filter:url(#filter18894)"
     transform="matrix(2.3385345,0,0,2.3385345,-518.67574,-33.809988)">
    <g
       id="g18882"
       inkscape:label="説"
       style="display:inline;opacity:1"
       transform="translate(-29.01965,6.2899274)">
      <path
         style="opacity:0.827815;fill:#13b911;fill-opacity:1;stroke:#f2f2f2;stroke-width:1.3;stroke-linecap:butt;stroke-linejoin:round;stroke-dasharray:none;stroke-opacity:1;paint-order:normal"
         d="m 221.59943,25.210402 -0.16807,6.386635 -11.17661,1.092451 0.75631,1.596658 0.92438,1.42859 3.78156,0.672277 7.81523,-1.26052 6.89084,-1.344555 1.9328,-0.672277 0.50421,-1.344555 0.16807,-0.588242 -6.47067,-0.16807 -0.25211,-5.546288 -0.92438,-0.756312 -0.16807,0.756312 -0.75631,-0.924382 -1.00842,1.42859 z"
         id="path18856" />
      <path
         style="opacity:0.827815;fill:#13b911;fill-opacity:1;stroke:#f2f2f2;stroke-width:0.9;stroke-linecap:butt;stroke-linejoin:round;stroke-dasharray:none;stroke-opacity:1;paint-order:normal"
         d="m 216.13718,37.899637 0.50421,1.26052 0.084,1.008416 13.61362,-2.268936 -0.67228,-1.008416 0.42017,-1.176485 -13.61361,1.26052 z"
         id="path18858" />
      <path
         style="opacity:0.827815;fill:#13b911;fill-opacity:1;stroke:#f2f2f2;stroke-width:1;stroke-linecap:butt;stroke-linejoin:round;stroke-dasharray:none;stroke-opacity:1;paint-order:normal"
         d="m 216.22121,41.597163 0.084,1.512624 0.2521,1.008416 12.43713,-1.932797 0.084,-1.092451 0.58824,-1.008416 -1.68069,-0.420174 z"
         id="path18860" />
      <path
         id="path18862"
         style="opacity:0.827815;fill:#13b911;fill-opacity:1;stroke:#f2f2f2;stroke-width:1.3;stroke-linecap:butt;stroke-linejoin:round;stroke-dasharray:none;stroke-opacity:1;paint-order:normal"
         d="m 228.1543,44.539062 -10.92383,1.427735 2.18359,11.849609 1.59766,-0.925781 h 0.58789 l 0.92383,-1.427734 2.85742,-0.839844 1.59766,1.091797 0.92382,0.08398 2.01563,-10.503906 -1.93164,0.251953 z m -2.35352,3.865235 -0.5039,3.529297 -3.61329,0.923828 -0.25195,-3.697266 z" />
      <path
         id="path18866"
         style="opacity:0.827815;fill:#13b911;fill-opacity:1;stroke:#f2f2f2;stroke-width:1.3;stroke-linecap:butt;stroke-linejoin:round;stroke-dasharray:none;stroke-opacity:1;paint-order:normal"
         d="m 247.0625,21.345703 -7.05859,11.595703 -1.68164,0.167969 -0.58789,-10 -2.10157,0.587891 -0.5039,1.765625 -0.92383,-1.597657 -0.83985,1.933594 -0.2539,0.839844 -0.67188,-0.587891 2.4375,6.890625 -1.17578,0.503906 -2.26953,1.261719 0.084,10.587891 1.17579,0.08398 0.84179,-1.007812 0.50391,1.427734 L 225.54883,60 l 0.75586,0.251953 2.68945,-3.107422 -0.41992,2.519531 1.0918,0.251954 8.57226,-12.605469 -0.58789,7.3125 0.83984,2.099609 13.86524,-4.789062 11.42969,-5.210938 0.33593,-0.923828 -1.00781,-0.08398 0.25195,-0.587891 -21.00976,5.376953 0.41992,-5.041015 0.42188,-1.259766 c 0,0 0.58789,-1.345904 0.58789,-1.009766 0,0.336138 1.00781,1.681641 1.00781,1.681641 l 0.41992,0.167969 3.78125,-10.841797 -1.5957,-0.335938 1.34375,-0.839843 -0.41992,-0.75586 -4.11719,0.671875 7.73047,-7.982422 -0.75586,-1.09375 h -1.68164 l -0.084,-1.259765 z m -5.79883,16.048828 0.92383,3.025391 -5.125,0.421875 v -2.689453 l -0.33594,-0.419922 z" />
    </g>
  </g>
</svg>
