<?xml version="1.0" encoding="UTF-8" standalone="no"?><svg xmlns:svg="http://www.w3.org/2000/svg" xmlns="http://www.w3.org/2000/svg" version="1.1" style="overflow:visible" viewBox="-223 -236 447 471" height="48px" width="48px"><rect fill-opacity="0" fill="rgb(0,0,0)" height="471" width="447" y="-236" x="-223" /><svg version="1.1" y="-250" x="-250" viewBox="-250 -250 500 500" height="500px" width="500px" style="overflow:visible"><g transform="rotate(0,0,0)" stroke-linejoin="round" fill="#fff"><path stroke-linecap="butt" stroke-linejoin="round" stroke-width="0" stroke-opacity="0" stroke="rgb(0,0,0)" fill="rgb(255,26,0)" d="m-47.562202-142.3035l6.975817-90.67965l45.02562 84.39495l32.342296-63.74505l18.390788 73.62105l67.855476-53.86905l-9.512462 87.9861l46.928108-7.18254l-15.219904 60.15375l74.197138 8.97819l-65.318897 55.6647l25.366542 49.38l-43.123133 18.8541l22.195764 70.0299l-65.318897-18.85425l-8.244129 45.7887l-42.488934-22.4454l-20.293277 77.21235l-29.171518-73.62105l-44.391423 45.7887l-17.122392-64.64295l-59.611433 52.9713l11.414928-87.08835l-52.00148 2.69346l19.02488-53.86905l-69.75807-23.3433l64.684698-44.5278l-35.076884-53.86905l54.67745-10.37922l-26.634832-76.0086l62.485304 33.8112l3.804986-64.700101z" /></g></svg></svg>